<svg aria-hidden="true" style="position: absolute; width: 0; height: 0; overflow: hidden;" version="1.1" xmlns="http://www.w3.org/2000/svg" xmlns:xlink="http://www.w3.org/1999/xlink">
<defs>
<symbol id="icon-setting" viewBox="0 0 31 32">
<path stroke-linejoin="round" stroke-linecap="butt" stroke-miterlimit="4" stroke-width="3.5556" d="M13.298 1.778c-0.877 0-1.612 0.616-1.754 1.47l-0.332 2.039c-0.095 0.569-0.498 1.067-1.019 1.375-0.119 0.047-0.237 0.119-0.356 0.19-0.521 0.308-1.138 0.403-1.707 0.19l-1.92-0.711c-0.806-0.308-1.73 0.024-2.157 0.782l-2.039 3.532c-0.45 0.759-0.261 1.707 0.403 2.276l1.588 1.304c0.45 0.379 0.687 0.972 0.687 1.564-0.024 0.071-0.024 0.142-0.024 0.213 0 0.047 0 0.119 0.024 0.19 0 0.593-0.237 1.185-0.687 1.564l-1.588 1.304c-0.664 0.569-0.853 1.517-0.403 2.276l2.039 3.532c0.427 0.759 1.351 1.090 2.157 0.782l1.92-0.711c0.569-0.213 1.185-0.119 1.707 0.19 0.119 0.071 0.237 0.142 0.356 0.19 0.521 0.308 0.924 0.806 1.019 1.375l0.332 2.039c0.142 0.853 0.877 1.493 1.754 1.493h4.101c0.877 0 1.612-0.64 1.754-1.493l0.332-2.039c0.095-0.569 0.498-1.067 1.019-1.375 0.119-0.047 0.237-0.119 0.356-0.19 0.498-0.308 1.138-0.403 1.683-0.19l1.944 0.711c0.806 0.308 1.73-0.024 2.157-0.782l2.039-3.532c0.45-0.759 0.261-1.707-0.403-2.276l-1.588-1.304c-0.45-0.379-0.687-0.972-0.687-1.564 0-0.071 0-0.142 0-0.19 0-0.071 0-0.142 0-0.213 0-0.593 0.237-1.185 0.687-1.564l1.588-1.304c0.664-0.569 0.853-1.517 0.403-2.276l-2.039-3.532c-0.427-0.759-1.351-1.090-2.157-0.782l-1.944 0.711c-0.545 0.213-1.185 0.119-1.683-0.19-0.119-0.071-0.237-0.142-0.356-0.19-0.521-0.308-0.924-0.806-1.019-1.375l-0.332-2.039c-0.142-0.853-0.877-1.47-1.754-1.47h-4.101zM15.336 20.741c-2.607 0-4.741-2.133-4.741-4.741 0-2.631 2.133-4.741 4.741-4.741 2.631 0 4.741 2.11 4.741 4.741 0 2.607-2.11 4.741-4.741 4.741z"></path>
</symbol>
<symbol id="icon-exit" viewBox="0 0 32 32">
<path d="M27.5 0c2.48 0 4.5 2 4.5 4.5v23c0 2.48-2.020 4.5-4.5 4.5h-11c-2.5 0-4.5-2.020-4.5-4.5v-4c0-0.84 0.66-1.5 1.5-1.5 0.82 0 1.5 0.66 1.5 1.5v4c0 0.82 0.66 1.5 1.5 1.5h11c0.82 0 1.5-0.68 1.5-1.5v-23c0-0.84-0.68-1.5-1.5-1.5h-11c-0.84 0-1.5 0.66-1.5 1.5v4c0 0.82-0.68 1.5-1.5 1.5-0.84 0-1.5-0.68-1.5-1.5v-4c0-2.5 2-4.5 4.5-4.5h11zM24.5 14.5c0.82 0 1.5 0.66 1.5 1.5 0 0.82-0.68 1.5-1.5 1.5h-19.1l2.1 1.88c0.6 0.54 0.66 1.5 0.1 2.12-0.54 0.6-1.5 0.66-2.12 0.1l-5-4.5c-0.3-0.28-0.48-0.68-0.48-1.1 0-0.44 0.18-0.84 0.48-1.12l5-4.5c0.62-0.56 1.58-0.5 2.12 0.1 0.56 0.62 0.5 1.58-0.1 2.12l-2.1 1.9h19.1z"></path>
</symbol>
<symbol id="icon-download" viewBox="0 0 24 32">
<path fill="none" stroke="#3b82f6" style="stroke: var(--color1, #3b82f6)" stroke-linejoin="round" stroke-linecap="butt" stroke-miterlimit="4" stroke-width="2.2069" d="M14.336 8.828h1.112c1.818 0 3.302 1.465 3.302 3.302v11.034c0 1.836-1.483 3.319-3.302 3.319h-11.034c-1.836 0-3.319-1.483-3.319-3.319v-11.034c0-1.836 1.483-3.302 3.319-3.302h1.095M5.508 14.336l4.414 4.414 4.414-4.414M9.922 18.75v-18.75M18.75 13.241h1.112c1.818 0 3.302 1.465 3.302 3.302v11.034c0 1.836-1.483 3.319-3.302 3.319h-11.034c-1.836 0-3.319-1.483-3.319-3.319v-1.095"></path>
</symbol>
<symbol id="icon-vector-file" viewBox="0 0 25 32">
<path stroke-linejoin="round" stroke-linecap="round" stroke-miterlimit="4" stroke-width="2.2857" d="M2.85 30.857c-0.945 0-1.707-0.777-1.707-1.722v-26.286c0-0.945 0.762-1.707 1.707-1.707h7.436c7.573 0 13.714 6.126 13.714 13.714v14.278c0 0.945-0.777 1.722-1.722 1.722h-19.429zM24 19.429v-4.008c0-2.834-2.316-5.135-5.15-5.135h-2.286c-0.945 0-1.707-0.777-1.707-1.722v-2.286c0-2.834-2.316-5.135-5.15-5.135h-2.85"></path>
</symbol>
<symbol id="icon-rigth" viewBox="0 0 18 32">
<path d="M0.672 0.672c0.96-0.928 2.464-0.928 3.424 0l13.6 13.6c0.928 0.96 0.928 2.464 0 3.424l-13.6 13.6c-0.96 0.928-2.464 0.928-3.424 0-0.928-0.96-0.928-2.464 0-3.424l11.904-11.872-11.904-11.904c-0.928-0.96-0.928-2.464 0-3.424z"></path>
</symbol>
<symbol id="icon-left" viewBox="0 0 32 32">
<path stroke-linejoin="round" stroke-linecap="butt" stroke-miterlimit="4" stroke-width="2.4" d="M12 20l-8-8 8-8M4 12h16c4.416 0 8 3.568 8 8 0 4.416-3.584 8-8 8h-4"></path>
</symbol>
<symbol id="icon-heart" viewBox="0 0 35 32">
<path stroke-linejoin="round" stroke-linecap="butt" stroke-miterlimit="4" stroke-width="3.84" d="M32.64 9.6c0 12.314-15.36 20.48-15.36 20.48s-15.36-8.166-15.36-20.48c0-4.25 3.558-7.68 7.987-7.68 3.302 0 6.144 1.92 7.373 4.659 1.203-2.739 4.045-4.659 7.347-4.659 4.429 0 8.013 3.43 8.013 7.68z"></path>
</symbol>
<symbol id="icon-file-done" viewBox="0 0 25 32">
<path stroke-linejoin="round" stroke-linecap="round" stroke-miterlimit="4" stroke-width="3.3103" d="M3.31 30.345c-0.927 0-1.655-0.75-1.655-1.655v-25.379c0-0.927 0.728-1.655 1.655-1.655h7.172c7.305 0 13.241 5.914 13.241 13.241v13.793c0 0.905-0.75 1.655-1.655 1.655h-18.759zM9.931 1.655c2.737 0 4.966 2.207 4.966 4.966v2.207c0 0.905 0.728 1.655 1.655 1.655h2.207c2.737 0 4.966 2.207 4.966 4.966M8.276 20.414l3.31 3.31 5.517-7.724"></path>
</symbol>
</defs>
</svg>
